<mxfile host="app.diagrams.net" agent="Mozilla/5.0 (Macintosh; Intel Mac OS X 10_15_7) AppleWebKit/537.36 (KHTML, like Gecko) Chrome/133.0.0.0 Safari/537.36" version="26.0.16">
  <diagram name="페이지-1" id="IJduOhyzFmIxou8_zdcC">
    <mxGraphModel dx="1080" dy="683" grid="1" gridSize="10" guides="1" tooltips="1" connect="1" arrows="1" fold="1" page="1" pageScale="1" pageWidth="827" pageHeight="1169" math="0" shadow="0">
      <root>
        <mxCell id="0" />
        <mxCell id="1" parent="0" />
        <mxCell id="JWLm_YGgdPOzXD_ox2nm-1" value="AWS Cloud" style="points=[[0,0],[0.25,0],[0.5,0],[0.75,0],[1,0],[1,0.25],[1,0.5],[1,0.75],[1,1],[0.75,1],[0.5,1],[0.25,1],[0,1],[0,0.75],[0,0.5],[0,0.25]];outlineConnect=0;gradientColor=none;html=1;whiteSpace=wrap;fontSize=12;fontStyle=0;container=1;pointerEvents=0;collapsible=0;recursiveResize=0;shape=mxgraph.aws4.group;grIcon=mxgraph.aws4.group_aws_cloud_alt;strokeColor=#232F3E;fillColor=none;verticalAlign=top;align=left;spacingLeft=30;fontColor=#232F3E;dashed=0;" parent="1" vertex="1">
          <mxGeometry x="380" y="220" width="570" height="540" as="geometry" />
        </mxCell>
        <mxCell id="APC4aSoLMwKeH-m7cziW-9" style="edgeStyle=orthogonalEdgeStyle;rounded=0;orthogonalLoop=1;jettySize=auto;html=1;" parent="1" source="Eqn28V2Kd_1gZDGSEugA-13" target="APC4aSoLMwKeH-m7cziW-3" edge="1">
          <mxGeometry relative="1" as="geometry">
            <mxPoint x="117.53" y="659.9230769230769" as="sourcePoint" />
          </mxGeometry>
        </mxCell>
        <mxCell id="APC4aSoLMwKeH-m7cziW-18" style="edgeStyle=orthogonalEdgeStyle;rounded=0;orthogonalLoop=1;jettySize=auto;html=1;" parent="1" source="APC4aSoLMwKeH-m7cziW-3" target="APC4aSoLMwKeH-m7cziW-11" edge="1">
          <mxGeometry relative="1" as="geometry">
            <Array as="points">
              <mxPoint x="220" y="630" />
            </Array>
          </mxGeometry>
        </mxCell>
        <mxCell id="APC4aSoLMwKeH-m7cziW-3" value="" style="sketch=0;outlineConnect=0;fontColor=#232F3E;gradientColor=none;fillColor=#232F3D;strokeColor=none;dashed=0;verticalLabelPosition=bottom;verticalAlign=top;align=center;html=1;fontSize=12;fontStyle=0;aspect=fixed;pointerEvents=1;shape=mxgraph.aws4.git_repository;" parent="1" vertex="1">
          <mxGeometry x="215.77" y="640.5" width="30" height="39" as="geometry" />
        </mxCell>
        <mxCell id="APC4aSoLMwKeH-m7cziW-11" value="" style="sketch=0;points=[[0,0,0],[0.25,0,0],[0.5,0,0],[0.75,0,0],[1,0,0],[0,1,0],[0.25,1,0],[0.5,1,0],[0.75,1,0],[1,1,0],[0,0.25,0],[0,0.5,0],[0,0.75,0],[1,0.25,0],[1,0.5,0],[1,0.75,0]];outlineConnect=0;fontColor=#232F3E;fillColor=#7AA116;strokeColor=#ffffff;dashed=0;verticalLabelPosition=bottom;verticalAlign=top;align=center;html=1;fontSize=12;fontStyle=0;aspect=fixed;shape=mxgraph.aws4.resourceIcon;resIcon=mxgraph.aws4.s3;" parent="1" vertex="1">
          <mxGeometry x="541.75" y="610" width="50" height="50" as="geometry" />
        </mxCell>
        <mxCell id="APC4aSoLMwKeH-m7cziW-17" style="edgeStyle=orthogonalEdgeStyle;rounded=0;orthogonalLoop=1;jettySize=auto;html=1;" parent="1" target="APC4aSoLMwKeH-m7cziW-11" edge="1">
          <mxGeometry relative="1" as="geometry">
            <Array as="points">
              <mxPoint x="735" y="630" />
            </Array>
            <mxPoint x="735.4000000000001" y="670" as="sourcePoint" />
          </mxGeometry>
        </mxCell>
        <mxCell id="APC4aSoLMwKeH-m7cziW-16" style="edgeStyle=orthogonalEdgeStyle;rounded=0;orthogonalLoop=1;jettySize=auto;html=1;entryX=0;entryY=0.5;entryDx=0;entryDy=0;entryPerimeter=0;" parent="1" source="APC4aSoLMwKeH-m7cziW-3" edge="1">
          <mxGeometry relative="1" as="geometry">
            <Array as="points">
              <mxPoint x="231" y="695" />
            </Array>
            <mxPoint x="710" y="695.25" as="targetPoint" />
          </mxGeometry>
        </mxCell>
        <mxCell id="APC4aSoLMwKeH-m7cziW-22" value="" style="sketch=0;outlineConnect=0;fontColor=#232F3E;gradientColor=none;fillColor=#232F3D;strokeColor=none;dashed=0;verticalLabelPosition=bottom;verticalAlign=top;align=center;html=1;fontSize=12;fontStyle=0;aspect=fixed;pointerEvents=1;shape=mxgraph.aws4.user;" parent="1" vertex="1">
          <mxGeometry x="110" y="390" width="50" height="50" as="geometry" />
        </mxCell>
        <mxCell id="APC4aSoLMwKeH-m7cziW-26" style="edgeStyle=orthogonalEdgeStyle;rounded=0;orthogonalLoop=1;jettySize=auto;html=1;entryX=0.5;entryY=1;entryDx=0;entryDy=0;entryPerimeter=0;" parent="1" source="APC4aSoLMwKeH-m7cziW-22" edge="1">
          <mxGeometry relative="1" as="geometry">
            <mxPoint x="135" y="307.75" as="targetPoint" />
          </mxGeometry>
        </mxCell>
        <mxCell id="APC4aSoLMwKeH-m7cziW-28" value="Code deploy" style="rounded=1;whiteSpace=wrap;html=1;opacity=0;" parent="1" vertex="1">
          <mxGeometry x="675.38" y="700" width="120" height="60" as="geometry" />
        </mxCell>
        <mxCell id="APC4aSoLMwKeH-m7cziW-29" value="S3" style="rounded=1;whiteSpace=wrap;html=1;opacity=0;" parent="1" vertex="1">
          <mxGeometry x="506.75" y="640" width="120" height="60" as="geometry" />
        </mxCell>
        <mxCell id="APC4aSoLMwKeH-m7cziW-30" value="Github Action" style="rounded=1;whiteSpace=wrap;html=1;opacity=0;" parent="1" vertex="1">
          <mxGeometry x="227.77" y="630" width="120" height="60" as="geometry" />
        </mxCell>
        <mxCell id="APC4aSoLMwKeH-m7cziW-33" value="Route 53" style="rounded=1;whiteSpace=wrap;html=1;opacity=0;" parent="1" vertex="1">
          <mxGeometry x="75" y="220" width="120" height="60" as="geometry" />
        </mxCell>
        <mxCell id="APC4aSoLMwKeH-m7cziW-31" value="api.whidy.site" style="rounded=1;whiteSpace=wrap;html=1;opacity=0;" parent="1" vertex="1">
          <mxGeometry x="35" y="317.75" width="120" height="60" as="geometry" />
        </mxCell>
        <mxCell id="APC4aSoLMwKeH-m7cziW-36" value="" style="edgeStyle=orthogonalEdgeStyle;rounded=0;orthogonalLoop=1;jettySize=auto;html=1;" parent="1" source="APC4aSoLMwKeH-m7cziW-22" target="APC4aSoLMwKeH-m7cziW-21" edge="1">
          <mxGeometry relative="1" as="geometry">
            <mxPoint x="158" y="403" as="sourcePoint" />
            <mxPoint x="540" y="403" as="targetPoint" />
          </mxGeometry>
        </mxCell>
        <mxCell id="APC4aSoLMwKeH-m7cziW-38" value="" style="rounded=0;whiteSpace=wrap;html=1;opacity=0;" parent="1" vertex="1">
          <mxGeometry x="7.770000000000003" y="160" width="120" height="60" as="geometry" />
        </mxCell>
        <mxCell id="Eqn28V2Kd_1gZDGSEugA-1" value="" style="rounded=0;whiteSpace=wrap;html=1;opacity=0;" vertex="1" parent="1">
          <mxGeometry x="920" y="730" width="120" height="60" as="geometry" />
        </mxCell>
        <mxCell id="JWLm_YGgdPOzXD_ox2nm-3" value="VPC" style="points=[[0,0],[0.25,0],[0.5,0],[0.75,0],[1,0],[1,0.25],[1,0.5],[1,0.75],[1,1],[0.75,1],[0.5,1],[0.25,1],[0,1],[0,0.75],[0,0.5],[0,0.25]];outlineConnect=0;gradientColor=none;html=1;whiteSpace=wrap;fontSize=12;fontStyle=0;container=1;pointerEvents=0;collapsible=0;recursiveResize=0;shape=mxgraph.aws4.group;grIcon=mxgraph.aws4.group_vpc2;strokeColor=#8C4FFF;fillColor=none;verticalAlign=top;align=left;spacingLeft=30;fontColor=#AAB7B8;dashed=0;" parent="1" vertex="1">
          <mxGeometry x="440" y="270" width="450" height="270" as="geometry" />
        </mxCell>
        <mxCell id="JWLm_YGgdPOzXD_ox2nm-2" value="Public subnet" style="points=[[0,0],[0.25,0],[0.5,0],[0.75,0],[1,0],[1,0.25],[1,0.5],[1,0.75],[1,1],[0.75,1],[0.5,1],[0.25,1],[0,1],[0,0.75],[0,0.5],[0,0.25]];outlineConnect=0;gradientColor=none;html=1;whiteSpace=wrap;fontSize=12;fontStyle=0;container=1;pointerEvents=0;collapsible=0;recursiveResize=0;shape=mxgraph.aws4.group;grIcon=mxgraph.aws4.group_security_group;grStroke=0;strokeColor=#7AA116;fillColor=#F2F6E8;verticalAlign=top;align=left;spacingLeft=30;fontColor=#248814;dashed=0;" parent="JWLm_YGgdPOzXD_ox2nm-3" vertex="1">
          <mxGeometry x="64" y="50" width="166" height="170" as="geometry" />
        </mxCell>
        <mxCell id="Eqn28V2Kd_1gZDGSEugA-2" value="EC2 instance contents" style="points=[[0,0],[0.25,0],[0.5,0],[0.75,0],[1,0],[1,0.25],[1,0.5],[1,0.75],[1,1],[0.75,1],[0.5,1],[0.25,1],[0,1],[0,0.75],[0,0.5],[0,0.25]];outlineConnect=0;gradientColor=none;html=1;whiteSpace=wrap;fontSize=12;fontStyle=0;container=0;pointerEvents=0;collapsible=0;recursiveResize=0;shape=mxgraph.aws4.group;grIcon=mxgraph.aws4.group_ec2_instance_contents;strokeColor=#D86613;fillColor=none;verticalAlign=top;align=left;spacingLeft=30;fontColor=#D86613;dashed=0;" vertex="1" parent="JWLm_YGgdPOzXD_ox2nm-2">
          <mxGeometry x="15.5" y="30" width="134.5" height="120" as="geometry" />
        </mxCell>
        <mxCell id="Eqn28V2Kd_1gZDGSEugA-16" value="" style="shape=image;verticalLabelPosition=bottom;labelBackgroundColor=default;verticalAlign=top;aspect=fixed;imageAspect=0;image=data:image/png,iVBORw0KGgoAAAANSUhEUgAAACgAAAAoCAYAAACM/rhtAAAACXBIWXMAAAsTAAALEwEAmpwYAAAEsElEQVR4nO2YX0xbVRjAiTGaGJ580Ic9GGNmfPHNRGN8MYuJj8Z3TWayJZuGyRaXYTCYFRqELctMGaVbUNtC/7fQQqG30Nv/LVspt7e97e1fKXTrf7plqIMBx5yOU8tsb3tLZ2bCl5yQXr7vO797z3e+852vo+NIjuSJTJHzA0PzgmTXJGfn5Pgl8OWti6zGyV96wLnJ/p0hg2BVTRrOd7RTRs0Tc6eFveCqSQAUlBbMJ4wAW11kNeYSRqAITINh0xg4LfwBCCwySVvgxswycbdsAKjpGdZQWJ2hCurAt9IBMG5TjR4KTrKkP3FG1Fd22C44bH8oKR04I+rbU3hm3m8Z8LKWlx21i9oOh+2PGzYR4M7w11qCEzrVPd1SbkvxhrGIS7jUQudUNys4eQDvPC/lbou8ymcGh+0P8bIKfCf76ZHWo32lacAbpgnDgH6E1UTWdcd2tBT9mC7FTljW7dtsbDkzPMDHJeqm4BTLs+/B4NWE2O1aIkc6kI+VHOliYztFz5U3jNg5+25DwMHZsSTPKmzo1HVvqWRZtz9Gv305Ekc+iKzfjJ4vJHFgTTm2GvnjmYVgaO5WmBFuwq37pkvCAXPx+hvDuGoCVCHEg/rxh/HXzWu2nXqAEI4uRT+Dz/z54DgToD6Oga5JDhC5p76qCaeP6F++qBj6S7isYHxTX440Vds5Uq7NeoDmNetutS6Z8xuZfAs9KnBJeWUTx/EX/wXIN0sUfdrrjHCOlHszAAIvVSbMU6pGS+zPByrBD23td11/1vNvWF0AfdPXgcAq//UAnNKLHT8r+nGv0YlBFUKDyCZUCPU+9WVrAsKQCBXC31fs8jSXaQ4NNQO+Fl/ela/ojlUAR0xibHjhJiOcKWnZw8GTTw//Ph34vjqAcEBdAMAL5a+YDXRCX0xzDRlugjFcqqoAXpAPbklJDSPg7XueNNKnN+izbNNMuBg+hf6/lL6TY5pLTChBj+rqZlkZz+KdsL6Dxw6T0UqGIGrFHoa+0rp9GybpSCHySa1E7c8HZJUXyBAE01y66Dw49VsvYAeYJd3/APr1TLpYjUHmAlpk7836vE0DoiWWkGrGCTxpbwzpU/ngz2wBqWLoGrL3ZFaiTS9xZZMYBYwTOFKuP5B+/EH8bWPS1DRcOWHnf38H2dtTzkesNkmzaYbeiH+EbJazRKBZQG+WIJFdtBj9kHWaaTZRE1nfEtIPF8LH7HfddZMuGjAxxx7GXqvEX8a3wjpRHzjqvArmpSpGP0U2kfuRt26nPal6+nfSy+uJjcQblZcqhT+HPlo66potFmwpx1bsQex4tR29Ef0C5kEIC/MlkfM54bMDOqXVN20MsdewWKgut0YalFtww1THYyOJFCIfMME1XW6xKVgXk+Y9f55SrN1fe7WeL3iswfwHddtWsLIt+U1Jy64n7Y37c5Q4WKQ5wSLdT+aDUk/Gm2gE1lLJX31pEj+vl6bn/tr5X13cR23i1i/uz771oT186wOKwCwVdcu4QNPG5pEyqAPnpP2Hbx4h4VsmZ2H77YpJAOTUdMvtNzlsvy3yAfTVtvYbkmnS0D9sECRhE7LlBqZk4DFsYGoI7EJb4Y7k/yx/A3lSEA4Dzc/GAAAAAElFTkSuQmCC;" vertex="1" parent="JWLm_YGgdPOzXD_ox2nm-2">
          <mxGeometry x="86" y="80" width="40" height="40" as="geometry" />
        </mxCell>
        <mxCell id="Eqn28V2Kd_1gZDGSEugA-17" value="" style="shape=image;verticalLabelPosition=bottom;labelBackgroundColor=default;verticalAlign=top;aspect=fixed;imageAspect=0;image=data:image/png,iVBORw0KGgoAAAANSUhEUgAAADAAAAAwCAYAAABXAvmHAAAACXBIWXMAAAsTAAALEwEAmpwYAAADNklEQVR4nO2Z30sUURTHh4pein5APdZDPyDqD+glmLx39t6pTcxiJA0linwshKCHqO2xx5JefNB7d2szN6EgUkkl6kUjfxRBimaF4dqaSqaou7PriTsk1Tg4u+7uOBN+4cCyO3vv9zNzDnfOvZK0pv9YOEgVEZLXJIfIPsxJBHMKIhAjrahWPSi5XXJE3owZvYk4mV80/1ckECd3ZCZvk9ymQCCwDnNSgTn9ZmH8n0CcTiBOL2sRbb3kBiFOCjCnb+2MLwFh9ANmRF0140pQ2Y05CWVq3ALkaQFX9zpm3BfybRJ5jjmdy9Y8NtWHUqNsdSDPyWgOjYPpaYznpT6OhnyHEScd+TKOl4CQHiWoylkbJ3Vkl5HnjC44ZR6b6gPX4j1uyfOVPo24qA/1nrolbQDESHS5Qcsay6En2gvxZBwmZiehbagdtIbSjIwtjjGnz0F3tAdKH5XbgUTTBrCbXExs1tjMGJxtrEgbwDxG10i37X9yBqCndLDS8I9hKK7X0gIwj6GndOcAllPf937w3y+yNWMl7AYAoc6vr4EEj3sXQOjZQLO3AYR4b8jbAELVnXe9AfDyyyvL75MLSbjWdsP9ADTkt1wfhOaTcbjUVOVuAMwpFIaL4ePEkOXvU/NTcO7xBXcDYE6hJFIGsZmY5TWj06OgNZxxNwDmFM4/uQg/49OW132a/AxFD067GwBzClXNV4yXPSuJ9x7XA2BO4Xp7AFILKcvrPQGAOYXbHdXeBsCcQv37Bm8DKFyFlsHn3gXAnBoL3ZuRLncA6KZmJJFM2E4uojB8EgbGBy3NJ9IYI2cAoofNtB1cDLGQiQXNrC4nW0rRkIsJZ/VZIy3sGnJznHpYAs0DLcaGgLjz6Y6RAQCpRIzGMjGVz0CGF1Ip5XCv36lIZL1naj5tce6uk9ye6qz0HCBj45z2Ie47JuVzhzof9YF+n9zIL+QNUr4lzrkwo7dyVB8JxGmNHD6xQ3JaSp2yP5v6QIy0FnB6yHHjS0CYijEj79I3T/oVRv2SmyRy13b9YGQScXJVi2gbJbfqSNi/3agPRuJ/jFNd5Llaq+6UvCLCyAHMaJMI8Xm1/axJypN+AeS65MjI4xVPAAAAAElFTkSuQmCC;" vertex="1" parent="JWLm_YGgdPOzXD_ox2nm-2">
          <mxGeometry x="36" y="81" width="39" height="39" as="geometry" />
        </mxCell>
        <mxCell id="APC4aSoLMwKeH-m7cziW-5" value="Private subnet" style="points=[[0,0],[0.25,0],[0.5,0],[0.75,0],[1,0],[1,0.25],[1,0.5],[1,0.75],[1,1],[0.75,1],[0.5,1],[0.25,1],[0,1],[0,0.75],[0,0.5],[0,0.25]];outlineConnect=0;gradientColor=none;html=1;whiteSpace=wrap;fontSize=12;fontStyle=0;container=1;pointerEvents=0;collapsible=0;recursiveResize=0;shape=mxgraph.aws4.group;grIcon=mxgraph.aws4.group_security_group;grStroke=0;strokeColor=#00A4A6;fillColor=#E6F6F7;verticalAlign=top;align=left;spacingLeft=30;fontColor=#147EBA;dashed=0;" parent="JWLm_YGgdPOzXD_ox2nm-3" vertex="1">
          <mxGeometry x="260" y="65" width="130" height="135" as="geometry" />
        </mxCell>
        <mxCell id="APC4aSoLMwKeH-m7cziW-6" value="" style="sketch=0;points=[[0,0,0],[0.25,0,0],[0.5,0,0],[0.75,0,0],[1,0,0],[0,1,0],[0.25,1,0],[0.5,1,0],[0.75,1,0],[1,1,0],[0,0.25,0],[0,0.5,0],[0,0.75,0],[1,0.25,0],[1,0.5,0],[1,0.75,0]];outlineConnect=0;fontColor=#232F3E;fillColor=#C925D1;strokeColor=#ffffff;dashed=0;verticalLabelPosition=bottom;verticalAlign=top;align=center;html=1;fontSize=12;fontStyle=0;aspect=fixed;shape=mxgraph.aws4.resourceIcon;resIcon=mxgraph.aws4.database;" parent="APC4aSoLMwKeH-m7cziW-5" vertex="1">
          <mxGeometry x="42.5" y="55" width="45" height="45" as="geometry" />
        </mxCell>
        <mxCell id="APC4aSoLMwKeH-m7cziW-32" value="Database" style="rounded=1;whiteSpace=wrap;html=1;opacity=0;" parent="APC4aSoLMwKeH-m7cziW-5" vertex="1">
          <mxGeometry x="5" y="85" width="120" height="60" as="geometry" />
        </mxCell>
        <mxCell id="APC4aSoLMwKeH-m7cziW-24" style="edgeStyle=orthogonalEdgeStyle;rounded=0;orthogonalLoop=1;jettySize=auto;html=1;" parent="JWLm_YGgdPOzXD_ox2nm-3" source="Eqn28V2Kd_1gZDGSEugA-2" target="APC4aSoLMwKeH-m7cziW-6" edge="1">
          <mxGeometry relative="1" as="geometry">
            <mxPoint x="200" y="133" as="sourcePoint" />
            <Array as="points">
              <mxPoint x="215" y="143" />
              <mxPoint x="215" y="143" />
            </Array>
          </mxGeometry>
        </mxCell>
        <mxCell id="Eqn28V2Kd_1gZDGSEugA-5" value="" style="edgeStyle=orthogonalEdgeStyle;rounded=0;orthogonalLoop=1;jettySize=auto;html=1;" edge="1" parent="JWLm_YGgdPOzXD_ox2nm-3" source="APC4aSoLMwKeH-m7cziW-21" target="JWLm_YGgdPOzXD_ox2nm-2">
          <mxGeometry relative="1" as="geometry">
            <Array as="points">
              <mxPoint x="50" y="145" />
              <mxPoint x="50" y="145" />
            </Array>
          </mxGeometry>
        </mxCell>
        <mxCell id="APC4aSoLMwKeH-m7cziW-21" value="" style="sketch=0;outlineConnect=0;fontColor=#232F3E;gradientColor=none;fillColor=#8C4FFF;strokeColor=none;dashed=0;verticalLabelPosition=bottom;verticalAlign=top;align=center;html=1;fontSize=12;fontStyle=0;aspect=fixed;pointerEvents=1;shape=mxgraph.aws4.internet_gateway;" parent="JWLm_YGgdPOzXD_ox2nm-3" vertex="1">
          <mxGeometry y="130" width="30" height="30" as="geometry" />
        </mxCell>
        <mxCell id="Eqn28V2Kd_1gZDGSEugA-6" value="" style="edgeStyle=orthogonalEdgeStyle;rounded=0;orthogonalLoop=1;jettySize=auto;html=1;" edge="1" parent="1" source="Eqn28V2Kd_1gZDGSEugA-2" target="APC4aSoLMwKeH-m7cziW-11">
          <mxGeometry relative="1" as="geometry">
            <mxPoint x="567" y="490" as="sourcePoint" />
            <Array as="points">
              <mxPoint x="567" y="500" />
              <mxPoint x="567" y="500" />
            </Array>
          </mxGeometry>
        </mxCell>
        <mxCell id="Eqn28V2Kd_1gZDGSEugA-9" value="" style="sketch=0;points=[[0,0,0],[0.25,0,0],[0.5,0,0],[0.75,0,0],[1,0,0],[0,1,0],[0.25,1,0],[0.5,1,0],[0.75,1,0],[1,1,0],[0,0.25,0],[0,0.5,0],[0,0.75,0],[1,0.25,0],[1,0.5,0],[1,0.75,0]];outlineConnect=0;fontColor=#232F3E;fillColor=#8C4FFF;strokeColor=#ffffff;dashed=0;verticalLabelPosition=bottom;verticalAlign=top;align=center;html=1;fontSize=12;fontStyle=0;aspect=fixed;shape=mxgraph.aws4.resourceIcon;resIcon=mxgraph.aws4.route_53;" vertex="1" parent="1">
          <mxGeometry x="115" y="260" width="40" height="40" as="geometry" />
        </mxCell>
        <mxCell id="Eqn28V2Kd_1gZDGSEugA-10" value="" style="sketch=0;points=[[0,0,0],[0.25,0,0],[0.5,0,0],[0.75,0,0],[1,0,0],[0,1,0],[0.25,1,0],[0.5,1,0],[0.75,1,0],[1,1,0],[0,0.25,0],[0,0.5,0],[0,0.75,0],[1,0.25,0],[1,0.5,0],[1,0.75,0]];outlineConnect=0;fontColor=#232F3E;fillColor=#C925D1;strokeColor=#ffffff;dashed=0;verticalLabelPosition=bottom;verticalAlign=top;align=center;html=1;fontSize=12;fontStyle=0;aspect=fixed;shape=mxgraph.aws4.resourceIcon;resIcon=mxgraph.aws4.codedeploy;" vertex="1" parent="1">
          <mxGeometry x="710" y="670" width="50" height="50" as="geometry" />
        </mxCell>
        <mxCell id="APC4aSoLMwKeH-m7cziW-20" style="edgeStyle=orthogonalEdgeStyle;rounded=0;orthogonalLoop=1;jettySize=auto;html=1;entryX=0.75;entryY=1;entryDx=0;entryDy=0;" parent="1" target="Eqn28V2Kd_1gZDGSEugA-2" edge="1">
          <mxGeometry relative="1" as="geometry">
            <Array as="points">
              <mxPoint x="735" y="510" />
              <mxPoint x="620" y="510" />
            </Array>
            <mxPoint x="735.4000000000001" y="670" as="sourcePoint" />
            <mxPoint x="670" y="510" as="targetPoint" />
          </mxGeometry>
        </mxCell>
        <mxCell id="Eqn28V2Kd_1gZDGSEugA-13" value="" style="sketch=0;outlineConnect=0;fontColor=#232F3E;gradientColor=none;fillColor=#232F3D;strokeColor=none;dashed=0;verticalLabelPosition=bottom;verticalAlign=top;align=center;html=1;fontSize=12;fontStyle=0;aspect=fixed;pointerEvents=1;shape=mxgraph.aws4.source_code;" vertex="1" parent="1">
          <mxGeometry x="100" y="641" width="27.77" height="38" as="geometry" />
        </mxCell>
      </root>
    </mxGraphModel>
  </diagram>
</mxfile>
